<svg width="352" height="352" viewBox="0 0 352 352" fill="none" xmlns="http://www.w3.org/2000/svg">
<circle cx="176" cy="176" r="176" fill="white"/>
<path d="M100.341 131.385C104.165 124.885 108.812 118.905 114.167 113.595L68.8521 63.9116C57.3995 74.8472 47.6947 87.477 40.0771 101.359L100.341 131.385Z" fill="#5EBA47"/>
<path d="M211.455 96.2698C218.31 99.3894 224.727 103.396 230.539 108.187L275.981 58.5677C263.931 48.1589 250.34 39.6822 235.692 33.4399L211.455 96.2698Z" fill="#E3B533"/>
<path d="M315.528 111.219L255.285 141.245C258.197 148.026 260.228 155.152 261.328 162.45L328.335 156.088C326.414 140.535 322.123 125.368 315.612 111.113" fill="#C4212E"/>
<path d="M250.98 132.531L311.202 102.504C303.756 88.7051 294.27 76.1089 283.063 65.1416L237.6 114.761C242.801 120.088 247.298 126.06 250.98 132.531Z" fill="#4A9E45"/>
<path d="M88.382 175.342C88.382 173.985 88.382 172.628 88.382 171.271L21.4595 165.27C21.2051 168.599 21.2051 171.95 21.2051 175.342C21.212 187.907 22.7429 200.424 25.7641 212.62L90.5024 194.045C89.1259 187.905 88.415 181.635 88.382 175.342Z" fill="#408045"/>
<path d="M242.541 230.412C237.777 236.22 232.282 241.387 226.192 245.785L261.583 303.038C274.703 294.143 286.388 283.295 296.231 270.87L242.541 230.412Z" fill="#FAC212"/>
<path d="M262.261 175.342C262.269 181.56 261.601 187.76 260.268 193.833L324.985 212.514C327.99 200.381 329.506 187.927 329.502 175.427C329.502 172.246 329.502 169.065 329.205 165.948L262.198 172.31C262.198 173.349 262.198 174.43 262.198 175.448" fill="#ED402B"/>
<path d="M109.184 231.704L55.6206 272.418C65.6042 284.695 77.4026 295.378 90.6086 304.098L125.978 246.845C119.75 242.536 114.105 237.44 109.184 231.683" fill="#F79E29"/>
<path d="M89.4634 161.623C90.6305 154.18 92.7692 146.923 95.8249 140.037L35.6668 110.032C28.9056 124.441 24.4273 139.815 22.3926 155.601L89.4634 161.623Z" fill="#1A94D4"/>
<path d="M253.334 308.275L218.007 251.022C211.53 254.724 204.602 257.575 197.396 259.504L209.928 325.621C225.222 322.103 239.883 316.252 253.398 308.275" fill="#A11C42"/>
<path d="M257.681 203.206C255.364 210.023 252.208 216.526 248.288 222.566L302.021 263.109C310.821 250.43 317.662 236.498 322.314 221.781L257.681 203.206Z" fill="#26BDE0"/>
<path d="M187.854 261.286C183.704 261.891 179.515 262.196 175.322 262.198C171.941 262.194 168.564 261.996 165.207 261.604L152.675 327.869C168.461 330.195 184.512 330.067 200.258 327.488L187.854 261.286Z" fill="#F26B2B"/>
<path d="M180.877 88.5724C188.204 89.0534 195.438 90.4788 202.4 92.8133L226.573 29.9835C211.872 24.7739 196.464 21.8281 180.877 21.2471V88.5724Z" fill="#E8213B"/>
<path d="M155.623 260.013C148.177 258.294 140.995 255.583 134.269 251.955L98.8784 309.208C112.675 317.127 127.619 322.85 143.175 326.172L155.623 260.013Z" fill="#DB1769"/>
<path d="M149.198 92.4104C156.321 90.1645 163.705 88.853 171.166 88.5087V21.2046C155.383 21.6227 139.761 24.484 124.854 29.6865L149.198 92.4104Z" fill="#17476B"/>
<path d="M103.289 223.965C98.9777 217.601 95.5334 210.692 93.047 203.418L28.3511 221.972C33.2107 237.233 40.4223 251.642 49.7255 264.679L103.289 223.965Z" fill="#C7962E"/>
<path d="M121.462 107.148C127.171 102.619 133.435 98.8349 140.101 95.8883L115.779 33.1221C101.405 39.1673 88.0286 47.3532 76.1045 57.4016L121.462 107.148Z" fill="#03699C"/>
</svg>
